<svg width="212" height="40" viewBox="0 0 212 40" fill="none" xmlns="http://www.w3.org/2000/svg">
<path d="M210.994 11.3013H206.458V6.76483H201.497V11.3013H196.961V16.262H201.497V20.7984H206.458V16.262H210.994V11.3013Z" fill="url(#paint0_linear)"/>
<path d="M6.81935 11.2589H1.10083V38.6042H6.81935V11.2589Z" fill="white"/>
<path d="M37.6508 28.6349L37.7046 28.2767H31.943L31.8795 28.5047C31.3566 30.3793 30.5295 31.8072 29.4204 32.7486C28.3051 33.6958 26.9247 34.1562 25.2006 34.1562C22.6935 34.1562 20.8171 33.3642 19.4651 31.735C18.1174 30.1122 17.4341 27.7508 17.4341 24.7163C17.4341 21.9396 18.1316 19.7412 19.5072 18.1824C20.8918 16.6127 22.7542 15.8499 25.2006 15.8499C26.9297 15.8499 28.3447 16.2973 29.526 17.2178C30.7059 18.1378 31.4746 19.4253 31.8762 21.1534L31.9325 21.3951H37.6976L37.652 21.0436C37.2609 18.0103 35.9431 15.5928 33.7349 13.8585C31.5374 12.1333 28.6661 11.2584 25.2006 11.2584C20.8951 11.2584 17.4831 12.512 15.059 14.9847C12.6365 17.4562 11.4084 20.9556 11.4084 25.3854C11.4084 29.5975 12.639 32.9061 15.0662 35.2194C17.4884 37.529 20.9302 38.6998 25.2963 38.6998C27.3983 38.6998 29.3277 38.3461 31.0312 37.6488C32.731 36.953 34.1706 35.9279 35.3101 34.6023C35.4005 34.5072 35.4501 34.4484 35.4947 34.3846L35.555 34.3089C35.5674 34.2952 35.5811 34.2807 35.5963 34.2658L35.6574 34.1958C36.2258 33.4676 36.6643 32.6615 36.946 31.8172C37.2211 30.9899 37.4582 29.9192 37.6508 28.6349Z" fill="white"/>
<path d="M64.9686 14.912C62.5599 12.4881 59.2042 11.2589 54.9959 11.2589C50.7868 11.2589 47.4234 12.4878 44.9995 14.9115C42.5758 17.3352 41.3469 20.7307 41.3469 25.0035C41.3469 29.2453 42.5761 32.6169 45.0002 35.0241C47.4229 37.4316 50.786 38.6523 54.9959 38.6523C59.2052 38.6523 62.5606 37.4316 64.9684 35.0238C67.3761 32.6156 68.5968 29.2443 68.5968 25.0035C68.597 20.7319 67.3763 17.3364 64.9686 14.912ZM60.5869 31.7133C59.266 33.3254 57.4372 34.1088 54.9961 34.1088C52.5528 34.1088 50.7155 33.3321 49.3793 31.7342C48.048 30.1439 47.3726 27.8791 47.3726 25.0035C47.3726 22.0973 48.0477 19.8164 49.3795 18.2245C50.7163 16.6269 52.5535 15.8504 54.9961 15.8504C57.3757 15.8504 59.19 16.6197 60.543 18.2023C61.8892 19.779 62.5718 22.0029 62.5718 24.8122C62.5713 27.7827 61.9037 30.1047 60.5869 31.7133Z" fill="white"/>
<path d="M84.723 16.052C86.9001 16.052 88.5652 16.7318 89.6723 18.0718C90.524 19.1034 90.9931 20.5204 90.9931 22.0627V38.7312H96.684V20.6191C96.684 15.5281 92.3408 11.3862 87.0027 11.3862C82.9794 11.3862 80.4648 13.0937 79.5705 13.8281L78.3276 14.8432V11.5073H72.6368V38.731H78.3735V22.0625C78.3735 20.6014 78.87 19.166 79.7357 18.1236C80.8617 16.7684 82.5866 16.052 84.723 16.052Z" fill="white"/>
<path d="M113.39 11.2806H108.493V8.61626C108.493 7.15243 109.594 6.38665 110.681 6.38665H113.44V1.79041H107.92C105.41 1.79041 102.814 3.74798 102.814 7.02389V11.2808H98.999V16.2331H102.68V38.6044H108.371V16.2331H113.39L113.39 11.2806Z" fill="white"/>
<path d="M138.489 14.912C136.08 12.4881 132.724 11.2589 128.516 11.2589C124.307 11.2589 120.944 12.4878 118.52 14.9115C116.096 17.3352 114.867 20.7307 114.867 25.0035C114.867 29.2453 116.096 32.6169 118.52 35.0241C120.943 37.4316 124.306 38.6523 128.516 38.6523C132.725 38.6523 136.081 37.4316 138.489 35.0238C140.896 32.6156 142.117 29.2443 142.117 25.0035C142.117 20.7319 140.896 17.3364 138.489 14.912ZM134.107 31.7133C132.786 33.3254 130.957 34.1088 128.516 34.1088C126.073 34.1088 124.235 33.3321 122.899 31.7342C121.568 30.1439 120.893 27.8791 120.893 25.0035C120.893 22.0973 121.568 19.8164 122.899 18.2245C124.236 16.6269 126.073 15.8504 128.516 15.8504C130.896 15.8504 132.71 16.6197 134.063 18.2023C135.409 19.779 136.092 22.0029 136.092 24.8122C136.091 27.7827 135.424 30.1047 134.107 31.7133Z" fill="white"/>
<path d="M182.095 38.6027L186.918 38.6009V34.2045H184.678C183.459 34.2045 182.54 33.2935 182.54 32.0852V16.2328H186.918V11.3055H182.54V5.66595H176.897V11.3055H172.527V16.2328H176.897V33.5291C176.898 35.9693 178.885 38.6027 182.095 38.6027Z" fill="white"/>
<path d="M157.466 16.052C159.643 16.052 161.308 16.7318 162.415 18.0718C163.267 19.1034 163.736 20.5204 163.736 22.0627V38.7312H169.427V20.6191C169.427 15.5281 165.083 11.3862 159.745 11.3862C155.722 11.3862 153.207 13.0937 152.313 13.8281L151.07 14.8432V11.5073H145.379V38.731H151.116V22.0625C151.116 20.6014 151.613 19.166 152.478 18.1236C153.604 16.7684 155.329 16.052 157.466 16.052Z" fill="white"/>
<defs>
<linearGradient id="paint0_linear" x1="200.319" y1="20.1182" x2="207.636" y2="7.44495" gradientUnits="userSpaceOnUse">
<stop stop-color="#FFD400"/>
<stop offset="0.2147" stop-color="#FF812B"/>
<stop offset="0.2278" stop-color="#FF7C2E"/>
<stop offset="0.3992" stop-color="#FF414D"/>
<stop offset="0.4812" stop-color="#FF2A59"/>
<stop offset="0.6575" stop-color="#E52A92"/>
<stop offset="0.7563" stop-color="#D82AAD"/>
<stop offset="0.8483" stop-color="#C82AD2"/>
<stop offset="0.9463" stop-color="#B92AF2"/>
<stop offset="1" stop-color="#B32AFF"/>
</linearGradient>
</defs>
</svg>
