<svg width="194" height="24" viewBox="0 0 194 24" fill="none" xmlns="http://www.w3.org/2000/svg">
<path d="M1.92 4.368H5.664V21H1.92V4.368ZM17.0978 21.336C14.3938 21.336 12.3298 20.584 10.9058 19.08C9.49775 17.576 8.79375 15.44 8.79375 12.672C8.79375 11.296 9.00975 10.072 9.44175 9C9.87375 7.912 10.4658 7 11.2178 6.264C11.9698 5.512 12.8658 4.944 13.9058 4.56C14.9458 4.176 16.0738 3.984 17.2898 3.984C17.9938 3.984 18.6338 4.04 19.2098 4.152C19.7858 4.248 20.2898 4.368 20.7218 4.512C21.1538 4.64 21.5138 4.776 21.8018 4.92C22.0898 5.064 22.2978 5.176 22.4258 5.256L21.3458 8.28C20.8338 8.008 20.2338 7.776 19.5458 7.584C18.8738 7.392 18.1058 7.296 17.2418 7.296C16.6658 7.296 16.0978 7.392 15.5378 7.584C14.9938 7.776 14.5058 8.088 14.0738 8.52C13.6578 8.936 13.3218 9.48 13.0658 10.152C12.8098 10.824 12.6818 11.64 12.6818 12.6C12.6818 13.368 12.7618 14.088 12.9218 14.76C13.0978 15.416 13.3698 15.984 13.7378 16.464C14.1218 16.944 14.6178 17.328 15.2258 17.616C15.8338 17.888 16.5698 18.024 17.4338 18.024C17.9778 18.024 18.4658 17.992 18.8978 17.928C19.3298 17.864 19.7138 17.792 20.0498 17.712C20.3858 17.616 20.6818 17.512 20.9378 17.4C21.1938 17.288 21.4258 17.184 21.6338 17.088L22.6658 20.088C22.1378 20.408 21.3938 20.696 20.4338 20.952C19.4738 21.208 18.3618 21.336 17.0978 21.336ZM27.6109 12.672C27.6109 13.488 27.7069 14.224 27.8989 14.88C28.1069 15.536 28.3949 16.104 28.7629 16.584C29.1469 17.048 29.6109 17.408 30.1549 17.664C30.6989 17.92 31.3229 18.048 32.0269 18.048C32.7149 18.048 33.3309 17.92 33.8749 17.664C34.4349 17.408 34.8989 17.048 35.2669 16.584C35.6509 16.104 35.9389 15.536 36.1309 14.88C36.3389 14.224 36.4429 13.488 36.4429 12.672C36.4429 11.856 36.3389 11.12 36.1309 10.464C35.9389 9.792 35.6509 9.224 35.2669 8.76C34.8989 8.28 34.4349 7.912 33.8749 7.656C33.3309 7.4 32.7149 7.272 32.0269 7.272C31.3229 7.272 30.6989 7.408 30.1549 7.68C29.6109 7.936 29.1469 8.304 28.7629 8.784C28.3949 9.248 28.1069 9.816 27.8989 10.488C27.7069 11.144 27.6109 11.872 27.6109 12.672ZM40.3069 12.672C40.3069 14.096 40.0909 15.352 39.6589 16.44C39.2429 17.512 38.6669 18.416 37.9309 19.152C37.1949 19.872 36.3149 20.416 35.2909 20.784C34.2829 21.152 33.1949 21.336 32.0269 21.336C30.8909 21.336 29.8189 21.152 28.8109 20.784C27.8029 20.416 26.9229 19.872 26.1709 19.152C25.4189 18.416 24.8269 17.512 24.3949 16.44C23.9629 15.352 23.7469 14.096 23.7469 12.672C23.7469 11.248 23.9709 10 24.4189 8.928C24.8669 7.84 25.4669 6.928 26.2189 6.192C26.9869 5.456 27.8669 4.904 28.8589 4.536C29.8669 4.168 30.9229 3.984 32.0269 3.984C33.1629 3.984 34.2349 4.168 35.2429 4.536C36.2509 4.904 37.1309 5.456 37.8829 6.192C38.6349 6.928 39.2269 7.84 39.6589 8.928C40.0909 10 40.3069 11.248 40.3069 12.672ZM54.5878 21C53.5158 19.096 52.3558 17.216 51.1078 15.36C49.8598 13.504 48.5318 11.752 47.1238 10.104V21H43.4278V4.368H46.4758C47.0038 4.896 47.5878 5.544 48.2278 6.312C48.8678 7.08 49.5158 7.904 50.1718 8.784C50.8438 9.648 51.5078 10.552 52.1638 11.496C52.8198 12.424 53.4358 13.32 54.0118 14.184V4.368H57.7318V21H54.5878ZM61.5684 21V4.368H72.7044V7.512H65.3124V10.992H71.8884V14.136H65.3124V21H61.5684ZM78.3062 12.672C78.3062 13.488 78.4022 14.224 78.5942 14.88C78.8022 15.536 79.0902 16.104 79.4582 16.584C79.8422 17.048 80.3062 17.408 80.8502 17.664C81.3942 17.92 82.0182 18.048 82.7222 18.048C83.4102 18.048 84.0262 17.92 84.5702 17.664C85.1302 17.408 85.5942 17.048 85.9622 16.584C86.3462 16.104 86.6342 15.536 86.8262 14.88C87.0342 14.224 87.1382 13.488 87.1382 12.672C87.1382 11.856 87.0342 11.12 86.8262 10.464C86.6342 9.792 86.3462 9.224 85.9622 8.76C85.5942 8.28 85.1302 7.912 84.5702 7.656C84.0262 7.4 83.4102 7.272 82.7222 7.272C82.0182 7.272 81.3942 7.408 80.8502 7.68C80.3062 7.936 79.8422 8.304 79.4582 8.784C79.0902 9.248 78.8022 9.816 78.5942 10.488C78.4022 11.144 78.3062 11.872 78.3062 12.672ZM91.0022 12.672C91.0022 14.096 90.7862 15.352 90.3542 16.44C89.9382 17.512 89.3622 18.416 88.6262 19.152C87.8902 19.872 87.0102 20.416 85.9862 20.784C84.9782 21.152 83.8902 21.336 82.7222 21.336C81.5862 21.336 80.5142 21.152 79.5062 20.784C78.4982 20.416 77.6182 19.872 76.8662 19.152C76.1142 18.416 75.5222 17.512 75.0902 16.44C74.6582 15.352 74.4422 14.096 74.4422 12.672C74.4422 11.248 74.6662 10 75.1142 8.928C75.5622 7.84 76.1622 6.928 76.9142 6.192C77.6822 5.456 78.5622 4.904 79.5542 4.536C80.5622 4.168 81.6182 3.984 82.7222 3.984C83.8582 3.984 84.9302 4.168 85.9382 4.536C86.9462 4.904 87.8262 5.456 88.5782 6.192C89.3302 6.928 89.9222 7.84 90.3542 8.928C90.7862 10 91.0022 11.248 91.0022 12.672ZM105.283 21C104.211 19.096 103.051 17.216 101.803 15.36C100.555 13.504 99.2271 11.752 97.8191 10.104V21H94.1231V4.368H97.1711C97.6991 4.896 98.2831 5.544 98.9231 6.312C99.5631 7.08 100.211 7.904 100.867 8.784C101.539 9.648 102.203 10.552 102.859 11.496C103.515 12.424 104.131 13.32 104.707 14.184V4.368H108.427V21H105.283ZM124.6 4.368V7.56H119.584V21H115.84V7.56H110.824V4.368H124.6Z" fill="white"/>
<path d="M132.274 22V13.334H137.188V14.314H133.422V17.016H136.74V17.982H133.422V22H132.274ZM138.406 17.66C138.406 16.8853 138.481 16.2133 138.63 15.644C138.779 15.0747 138.989 14.608 139.26 14.244C139.531 13.8707 139.853 13.5953 140.226 13.418C140.609 13.2313 141.033 13.138 141.5 13.138C141.957 13.138 142.377 13.2313 142.76 13.418C143.143 13.5953 143.469 13.8707 143.74 14.244C144.011 14.608 144.221 15.0747 144.37 15.644C144.529 16.2133 144.608 16.8853 144.608 17.66C144.608 18.4347 144.529 19.1067 144.37 19.676C144.221 20.2453 144.011 20.7167 143.74 21.09C143.469 21.4633 143.143 21.7387 142.76 21.916C142.377 22.0933 141.957 22.182 141.5 22.182C141.033 22.182 140.609 22.0933 140.226 21.916C139.853 21.7387 139.531 21.4633 139.26 21.09C138.989 20.7167 138.779 20.2453 138.63 19.676C138.481 19.1067 138.406 18.4347 138.406 17.66ZM139.582 17.66C139.582 18.7987 139.736 19.6713 140.044 20.278C140.352 20.8847 140.828 21.188 141.472 21.188C142.125 21.188 142.615 20.8847 142.942 20.278C143.269 19.6713 143.432 18.7987 143.432 17.66C143.432 16.5213 143.269 15.6487 142.942 15.042C142.615 14.4353 142.125 14.132 141.472 14.132C140.828 14.132 140.352 14.4353 140.044 15.042C139.736 15.6487 139.582 16.5213 139.582 17.66ZM151.034 15.98C151.034 16.512 150.894 16.9833 150.614 17.394C150.334 17.7953 149.956 18.108 149.48 18.332C149.62 18.556 149.774 18.8127 149.942 19.102C150.119 19.382 150.297 19.6853 150.474 20.012C150.651 20.3293 150.824 20.6607 150.992 21.006C151.169 21.342 151.333 21.6733 151.482 22H150.25C149.97 21.328 149.662 20.684 149.326 20.068C148.999 19.452 148.682 18.9527 148.374 18.57C148.318 18.5793 148.234 18.584 148.122 18.584C148.019 18.584 147.949 18.584 147.912 18.584H146.932V22H145.77V13.46C145.91 13.4227 146.069 13.39 146.246 13.362C146.433 13.334 146.619 13.3153 146.806 13.306C147.002 13.2873 147.193 13.2733 147.38 13.264C147.567 13.2547 147.735 13.25 147.884 13.25C148.929 13.25 149.713 13.4787 150.236 13.936C150.768 14.3933 151.034 15.0747 151.034 15.98ZM147.982 14.244C147.767 14.244 147.557 14.2487 147.352 14.258C147.156 14.258 147.016 14.2673 146.932 14.286V17.632H147.674C148.01 17.632 148.309 17.6087 148.57 17.562C148.841 17.5153 149.069 17.4313 149.256 17.31C149.452 17.1793 149.601 17.0067 149.704 16.792C149.807 16.568 149.858 16.2787 149.858 15.924C149.858 15.588 149.807 15.3127 149.704 15.098C149.601 14.8833 149.466 14.7153 149.298 14.594C149.13 14.4633 148.929 14.3747 148.696 14.328C148.472 14.272 148.234 14.244 147.982 14.244ZM160.274 22V13.334H165.188V14.314H161.422V17.016H164.74V17.982H161.422V22H160.274ZM170.074 14.314V21.02H171.754V22H167.246V21.02H168.926V14.314H167.246V13.334H171.754V14.314H170.074ZM178.222 17.73H179.37V21.79C179.193 21.8553 178.908 21.9347 178.516 22.028C178.124 22.1307 177.662 22.182 177.13 22.182C176.607 22.182 176.131 22.084 175.702 21.888C175.273 21.6827 174.904 21.3887 174.596 21.006C174.297 20.6233 174.064 20.152 173.896 19.592C173.728 19.0227 173.644 18.3787 173.644 17.66C173.644 16.932 173.737 16.288 173.924 15.728C174.111 15.168 174.363 14.6967 174.68 14.314C175.007 13.9313 175.385 13.642 175.814 13.446C176.243 13.2407 176.705 13.138 177.2 13.138C177.517 13.138 177.797 13.1613 178.04 13.208C178.283 13.2547 178.488 13.3107 178.656 13.376C178.833 13.4413 178.978 13.5113 179.09 13.586C179.202 13.6513 179.286 13.7027 179.342 13.74L178.964 14.706C178.749 14.538 178.493 14.4027 178.194 14.3C177.905 14.188 177.597 14.132 177.27 14.132C176.915 14.132 176.584 14.216 176.276 14.384C175.977 14.552 175.721 14.79 175.506 15.098C175.291 15.406 175.123 15.7793 175.002 16.218C174.881 16.6473 174.82 17.128 174.82 17.66C174.82 18.1827 174.871 18.6587 174.974 19.088C175.086 19.5173 175.245 19.886 175.45 20.194C175.655 20.502 175.907 20.7447 176.206 20.922C176.514 21.09 176.864 21.174 177.256 21.174C177.527 21.174 177.737 21.1553 177.886 21.118C178.035 21.0807 178.147 21.0433 178.222 21.006V17.73ZM183.514 17.646L184.858 13.334H185.936C186.123 14.6967 186.253 16.092 186.328 17.52C186.412 18.948 186.487 20.4413 186.552 22H185.432C185.423 21.496 185.413 20.95 185.404 20.362C185.395 19.774 185.381 19.1673 185.362 18.542C185.353 17.9167 185.339 17.282 185.32 16.638C185.311 15.994 185.297 15.3687 185.278 14.762L184.018 18.71H183.01L181.722 14.762C181.713 15.3687 181.699 15.994 181.68 16.638C181.671 17.2727 181.657 17.9073 181.638 18.542C181.629 19.1673 181.615 19.774 181.596 20.362C181.587 20.95 181.577 21.496 181.568 22H180.448C180.476 21.2907 180.509 20.5627 180.546 19.816C180.583 19.0693 180.625 18.3273 180.672 17.59C180.728 16.8527 180.789 16.1247 180.854 15.406C180.929 14.6873 181.008 13.9967 181.092 13.334H182.156L183.514 17.646ZM192.656 22L192.138 19.732H188.806L188.302 22H187.126C187.285 21.384 187.462 20.7167 187.658 19.998C187.854 19.2793 188.064 18.542 188.288 17.786C188.521 17.03 188.764 16.274 189.016 15.518C189.268 14.7527 189.534 14.0247 189.814 13.334H191.242C191.513 14.0247 191.769 14.7527 192.012 15.518C192.264 16.274 192.497 17.03 192.712 17.786C192.936 18.542 193.146 19.2793 193.342 19.998C193.538 20.7167 193.715 21.384 193.874 22H192.656ZM190.486 14.342C190.271 14.93 190.038 15.6113 189.786 16.386C189.534 17.1607 189.296 17.9587 189.072 18.78H191.872C191.657 17.94 191.424 17.1327 191.172 16.358C190.929 15.574 190.701 14.902 190.486 14.342Z" fill="#BDBDBD"/>
</svg>
